HIERARCHY
ROOT Hips
{
	OFFSET -366.576721 -553.763367 89.060974
	CHANNELS 6 Xposition Yposition Zposition Zrotation Yrotation Xrotation
	JOINT Spine
	{
		OFFSET 0.000000 2.080078 8.814247
		CHANNELS 6 Xposition Yposition Zposition Zrotation Yrotation Xrotation
		JOINT Spine1
		{
			OFFSET 0.000000 0.000000 8.844139
			CHANNELS 6 Xposition Yposition Zposition Zrotation Yrotation Xrotation
			JOINT Spine2
			{
				OFFSET 0.000000 0.000000 11.682266
				CHANNELS 6 Xposition Yposition Zposition Zrotation Yrotation Xrotation
				JOINT Spine3
				{
					OFFSET 0.000000 0.000000 11.746704
					CHANNELS 6 Xposition Yposition Zposition Zrotation Yrotation Xrotation
					JOINT Neck
					{
						OFFSET 0.000000 0.000000 17.658264
						CHANNELS 6 Xposition Yposition Zposition Zrotation Yrotation Xrotation
						JOINT Neck1
						{
							OFFSET 0.000000 0.000000 5.101517
							CHANNELS 6 Xposition Yposition Zposition Zrotation Yrotation Xrotation
							JOINT Head
							{
								OFFSET 0.000000 0.000000 5.101517
								CHANNELS 6 Xposition Yposition Zposition Zrotation Yrotation Xrotation
								JOINT HeadEnd
								{
									OFFSET 0.000000 0.000000 11.655090
									CHANNELS 6 Xposition Yposition Zposition Zrotation Yrotation Xrotation
									End Site
									{
										OFFSET 0.000000 0.000000 0.100006
									}
								}
							}
						}
					}
					JOINT RightShoulder
					{
						OFFSET -2.625397 0.000000 11.175217
						CHANNELS 6 Xposition Yposition Zposition Zrotation Yrotation Xrotation
						JOINT RightArm
						{
							OFFSET 0.000000 0.000000 10.434708
							CHANNELS 6 Xposition Yposition Zposition Zrotation Yrotation Xrotation
							JOINT RightForeArm
							{
								OFFSET 0.000000 0.000000 29.628418
								CHANNELS 6 Xposition Yposition Zposition Zrotation Yrotation Xrotation
								JOINT RightHand
								{
									OFFSET 0.000000 0.000000 22.857605
									CHANNELS 6 Xposition Yposition Zposition Zrotation Yrotation Xrotation
									JOINT RightHandThumb1
									{
										OFFSET -2.867310 -2.944275 3.959564
										CHANNELS 6 Xposition Yposition Zposition Zrotation Yrotation Xrotation
										JOINT RightHandThumb2
										{
											OFFSET 0.000000 0.000000 3.350403
											CHANNELS 6 Xposition Yposition Zposition Zrotation Yrotation Xrotation
											JOINT RightHandThumb3
											{
												OFFSET 0.000000 0.000000 3.756516
												CHANNELS 6 Xposition Yposition Zposition Zrotation Yrotation Xrotation
												JOINT RightHandThumb4
												{
													OFFSET 0.000000 0.000000 3.147339
													CHANNELS 6 Xposition Yposition Zposition Zrotation Yrotation Xrotation
													End Site
													{
														OFFSET 0.000000 0.000000 0.100006
													}
												}
											}
										}
									}
									JOINT RightHandIndex1
									{
										OFFSET -0.086761 -2.345276 10.030899
										CHANNELS 6 Xposition Yposition Zposition Zrotation Yrotation Xrotation
										JOINT RightHandIndex2
										{
											OFFSET 0.000000 0.000000 4.061096
											CHANNELS 6 Xposition Yposition Zposition Zrotation Yrotation Xrotation
											JOINT RightHandIndex3
											{
												OFFSET 0.000000 0.000000 3.248871
												CHANNELS 6 Xposition Yposition Zposition Zrotation Yrotation Xrotation
												JOINT RightHandIndex4
												{
													OFFSET 0.000000 0.000000 2.639709
													CHANNELS 6 Xposition Yposition Zposition Zrotation Yrotation Xrotation
													End Site
													{
														OFFSET 0.000000 0.000000 0.100006
													}
												}
											}
										}
									}
									JOINT RightHandMiddle1
									{
										OFFSET 0.104095 -0.006775 9.502945
										CHANNELS 6 Xposition Yposition Zposition Zrotation Yrotation Xrotation
										JOINT RightHandMiddle2
										{
											OFFSET 0.000000 0.000000 4.568726
											CHANNELS 6 Xposition Yposition Zposition Zrotation Yrotation Xrotation
											JOINT RightHandMiddle3
											{
												OFFSET 0.000000 0.000000 3.654984
												CHANNELS 6 Xposition Yposition Zposition Zrotation Yrotation Xrotation
												JOINT RightHandMiddle4
												{
													OFFSET 0.000000 0.000000 2.741241
													CHANNELS 6 Xposition Yposition Zposition Zrotation Yrotation Xrotation
													End Site
													{
														OFFSET 0.000000 0.000000 0.100006
													}
												}
											}
										}
									}
									JOINT RightHandRing1
									{
										OFFSET 0.086761 2.267456 8.921707
										CHANNELS 6 Xposition Yposition Zposition Zrotation Yrotation Xrotation
										JOINT RightHandRing2
										{
											OFFSET 0.000000 0.000000 4.061096
											CHANNELS 6 Xposition Yposition Zposition Zrotation Yrotation Xrotation
											JOINT RightHandRing3
											{
												OFFSET 0.000000 0.000000 3.654984
												CHANNELS 6 Xposition Yposition Zposition Zrotation Yrotation Xrotation
												JOINT RightHandRing4
												{
													OFFSET 0.000000 0.000000 2.741241
													CHANNELS 6 Xposition Yposition Zposition Zrotation Yrotation Xrotation
													End Site
													{
														OFFSET 0.000000 0.000000 0.100006
													}
												}
											}
										}
									}
									JOINT RightHandPinky1
									{
										OFFSET -0.173492 4.467224 7.976990
										CHANNELS 6 Xposition Yposition Zposition Zrotation Yrotation Xrotation
										JOINT RightHandPinky2
										{
											OFFSET 0.000000 0.000000 3.350403
											CHANNELS 6 Xposition Yposition Zposition Zrotation Yrotation Xrotation
											JOINT RightHandPinky3
											{
												OFFSET 0.000000 0.000000 2.842758
												CHANNELS 6 Xposition Yposition Zposition Zrotation Yrotation Xrotation
												JOINT RightHandPinky4
												{
													OFFSET 0.000000 0.000000 2.639709
													CHANNELS 6 Xposition Yposition Zposition Zrotation Yrotation Xrotation
													End Site
													{
														OFFSET 0.000000 0.000000 0.100006
													}
												}
											}
										}
									}
									JOINT RightForeArmEnd
									{
										OFFSET 0.000000 0.000000 0.000000
										CHANNELS 6 Xposition Yposition Zposition Zrotation Yrotation Xrotation
										End Site
										{
											OFFSET 0.000000 0.000000 0.100006
										}
									}
								}
								JOINT RightArmEnd
								{
									OFFSET 0.000000 0.000000 0.000000
									CHANNELS 6 Xposition Yposition Zposition Zrotation Yrotation Xrotation
									End Site
									{
										OFFSET 0.000000 0.000000 0.100006
									}
								}
							}
						}
					}
					JOINT LeftShoulder
					{
						OFFSET 2.625397 0.000000 11.175217
						CHANNELS 6 Xposition Yposition Zposition Zrotation Yrotation Xrotation
						JOINT LeftArm
						{
							OFFSET 0.000000 0.000000 10.813629
							CHANNELS 6 Xposition Yposition Zposition Zrotation Yrotation Xrotation
							JOINT LeftForeArm
							{
								OFFSET 0.000000 0.000000 28.724777
								CHANNELS 6 Xposition Yposition Zposition Zrotation Yrotation Xrotation
								JOINT LeftHand
								{
									OFFSET 0.644379 0.328857 25.716171
									CHANNELS 6 Xposition Yposition Zposition Zrotation Yrotation Xrotation
									JOINT LeftHandThumb1
									{
										OFFSET 2.867310 -2.944275 3.959564
										CHANNELS 6 Xposition Yposition Zposition Zrotation Yrotation Xrotation
										JOINT LeftHandThumb2
										{
											OFFSET 0.000000 0.000000 3.350403
											CHANNELS 6 Xposition Yposition Zposition Zrotation Yrotation Xrotation
											JOINT LeftHandThumb3
											{
												OFFSET 0.000000 0.000000 3.756516
												CHANNELS 6 Xposition Yposition Zposition Zrotation Yrotation Xrotation
												JOINT LeftHandThumb4
												{
													OFFSET 0.000000 0.000000 3.100006
													CHANNELS 6 Xposition Yposition Zposition Zrotation Yrotation Xrotation
													End Site
													{
														OFFSET 0.000000 0.000000 0.100006
													}
												}
											}
										}
									}
									JOINT LeftHandIndex1
									{
										OFFSET 0.086761 -2.345276 10.030899
										CHANNELS 6 Xposition Yposition Zposition Zrotation Yrotation Xrotation
										JOINT LeftHandIndex2
										{
											OFFSET 0.000000 0.000000 4.061096
											CHANNELS 6 Xposition Yposition Zposition Zrotation Yrotation Xrotation
											JOINT LeftHandIndex3
											{
												OFFSET 0.000000 0.000000 3.248871
												CHANNELS 6 Xposition Yposition Zposition Zrotation Yrotation Xrotation
												JOINT LeftHandIndex4
												{
													OFFSET 0.000000 0.000000 2.639709
													CHANNELS 6 Xposition Yposition Zposition Zrotation Yrotation Xrotation
													End Site
													{
														OFFSET 0.000000 0.000000 0.100006
													}
												}
											}
										}
									}
									JOINT LeftHandMiddle1
									{
										OFFSET -0.104095 -0.006775 9.502945
										CHANNELS 6 Xposition Yposition Zposition Zrotation Yrotation Xrotation
										JOINT LeftHandMiddle2
										{
											OFFSET 0.000000 0.000000 4.568726
											CHANNELS 6 Xposition Yposition Zposition Zrotation Yrotation Xrotation
											JOINT LeftHandMiddle3
											{
												OFFSET 0.000000 0.000000 3.654984
												CHANNELS 6 Xposition Yposition Zposition Zrotation Yrotation Xrotation
												JOINT LeftHandMiddle4
												{
													OFFSET 0.000000 0.000000 2.741241
													CHANNELS 6 Xposition Yposition Zposition Zrotation Yrotation Xrotation
													End Site
													{
														OFFSET 0.000000 0.000000 0.100006
													}
												}
											}
										}
									}
									JOINT LeftHandRing1
									{
										OFFSET -0.086761 2.267456 8.921707
										CHANNELS 6 Xposition Yposition Zposition Zrotation Yrotation Xrotation
										JOINT LeftHandRing2
										{
											OFFSET 0.000000 0.000000 4.061096
											CHANNELS 6 Xposition Yposition Zposition Zrotation Yrotation Xrotation
											JOINT LeftHandRing3
											{
												OFFSET 0.000000 0.000000 3.654984
												CHANNELS 6 Xposition Yposition Zposition Zrotation Yrotation Xrotation
												JOINT LeftHandRing4
												{
													OFFSET 0.000000 0.000000 2.741241
													CHANNELS 6 Xposition Yposition Zposition Zrotation Yrotation Xrotation
													End Site
													{
														OFFSET 0.000000 0.000000 0.100006
													}
												}
											}
										}
									}
									JOINT LeftHandPinky1
									{
										OFFSET 0.173492 4.467224 7.976990
										CHANNELS 6 Xposition Yposition Zposition Zrotation Yrotation Xrotation
										JOINT LeftHandPinky2
										{
											OFFSET 0.000000 0.000000 3.350403
											CHANNELS 6 Xposition Yposition Zposition Zrotation Yrotation Xrotation
											JOINT LeftHandPinky3
											{
												OFFSET 0.000000 0.000000 2.842758
												CHANNELS 6 Xposition Yposition Zposition Zrotation Yrotation Xrotation
												JOINT LeftHandPinky4
												{
													OFFSET 0.000000 0.000000 2.639709
													CHANNELS 6 Xposition Yposition Zposition Zrotation Yrotation Xrotation
													End Site
													{
														OFFSET 0.000000 0.000000 0.100006
													}
												}
											}
										}
									}
									JOINT LeftForeArmEnd
									{
										OFFSET 0.000000 0.000000 0.000000
										CHANNELS 6 Xposition Yposition Zposition Zrotation Yrotation Xrotation
										End Site
										{
											OFFSET 0.000000 0.000000 0.100006
										}
									}
								}
								JOINT LeftArmEnd
								{
									OFFSET 0.000000 0.000000 0.000000
									CHANNELS 6 Xposition Yposition Zposition Zrotation Yrotation Xrotation
									End Site
									{
										OFFSET 0.000000 0.000000 0.100006
									}
								}
							}
						}
					}
				}
			}
		}
	}
	JOINT RightUpLeg
	{
		OFFSET -11.289948 0.000000 0.000000
		CHANNELS 6 Xposition Yposition Zposition Zrotation Yrotation Xrotation
		JOINT RightLeg
		{
			OFFSET 0.000000 0.000000 -38.200321
			CHANNELS 6 Xposition Yposition Zposition Zrotation Yrotation Xrotation
			JOINT RightFoot
			{
				OFFSET 0.000000 0.000000 -39.900856
				CHANNELS 6 Xposition Yposition Zposition Zrotation Yrotation Xrotation
				JOINT RightToeBase
				{
					OFFSET 0.000000 -15.261658 0.000001
					CHANNELS 6 Xposition Yposition Zposition Zrotation Yrotation Xrotation
					JOINT RightToeBaseEnd
					{
						OFFSET 0.000000 -7.370728 0.000001
						CHANNELS 6 Xposition Yposition Zposition Zrotation Yrotation Xrotation
						End Site
						{
							OFFSET 0.000000 0.000000 0.100000
						}
					}
				}
				JOINT RightLegEnd
				{
					OFFSET 0.000000 0.000000 0.000000
					CHANNELS 6 Xposition Yposition Zposition Zrotation Yrotation Xrotation
					End Site
					{
						OFFSET 0.000000 0.000000 0.100000
					}
				}
			}
			JOINT RightUpLegEnd
			{
				OFFSET 0.000000 0.000000 0.000000
				CHANNELS 6 Xposition Yposition Zposition Zrotation Yrotation Xrotation
				End Site
				{
					OFFSET 0.000000 0.000000 0.099998
				}
			}
		}
	}
	JOINT LeftUpLeg
	{
		OFFSET 11.315674 0.000000 0.000000
		CHANNELS 6 Xposition Yposition Zposition Zrotation Yrotation Xrotation
		JOINT LeftLeg
		{
			OFFSET 0.000000 0.000000 -38.200321
			CHANNELS 6 Xposition Yposition Zposition Zrotation Yrotation Xrotation
			JOINT LeftFoot
			{
				OFFSET 0.000000 0.000000 -39.900856
				CHANNELS 6 Xposition Yposition Zposition Zrotation Yrotation Xrotation
				JOINT LeftToeBase
				{
					OFFSET 0.000000 -15.261658 0.000001
					CHANNELS 6 Xposition Yposition Zposition Zrotation Yrotation Xrotation
					JOINT LeftToeBaseEnd
					{
						OFFSET 0.000000 -7.539978 0.000001
						CHANNELS 6 Xposition Yposition Zposition Zrotation Yrotation Xrotation
						End Site
						{
							OFFSET 0.000000 0.000000 0.100000
						}
					}
				}
				JOINT LeftLegEnd
				{
					OFFSET 0.000000 0.000000 0.000000
					CHANNELS 6 Xposition Yposition Zposition Zrotation Yrotation Xrotation
					End Site
					{
						OFFSET 0.000000 0.000000 0.100000
					}
				}
			}
			JOINT LeftUpLegEnd
			{
				OFFSET 0.000000 0.000000 0.000000
				CHANNELS 6 Xposition Yposition Zposition Zrotation Yrotation Xrotation
				End Site
				{
					OFFSET 0.000000 0.000000 0.099998
				}
			}
		}
	}
}
MOTION
Frames: 2
Frame Time: 0.016667
20.655029 -19.284790 86.567413 -2.525307 -5.470542 -21.458310 -0.000063 2.080013 8.814230 -0.831866 -0.198981 12.064845 -0.000063 -0.000036 8.844152 0.312993 0.824035 2.037105 -0.000018 0.000011 11.682274 2.503789 5.888760 14.384240 -0.000028 -0.000006 11.746702 0.099973 3.047366 4.629287 -0.000017 -0.000065 17.658260 8.838340 5.290329 13.992858 -0.000019 0.000006 5.101516 8.155645 -1.932083 0.597582 -0.000025 -0.000070 5.101562 -0.750012 1.560420 -19.968644 -0.000033 -0.000068 11.655066 0.000001 -0.000000 -0.000001 -2.625408 0.000014 11.175200 13.601020 -96.840956 0.620698 -0.000011 -0.000004 10.434719 -54.686873 -36.792815 62.283443 -0.000028 -0.000011 29.628397 14.513312 0.438994 15.428226 -0.000038 0.000082 22.857574 12.889835 -8.419232 -3.853671 -2.867283 -2.944305 3.959579 31.604614 -17.443321 51.240472 -0.000015 0.000000 3.350433 -13.067054 8.582359 -23.536883 -0.000031 -0.000061 3.756557 -8.692450 6.542769 -16.108588 -0.000002 0.000002 3.147342 -0.000000 0.000000 -0.000000 -0.086796 -2.345268 10.030926 -11.744718 -15.837479 2.610866 0.000009 -0.000007 4.061096 0.333336 -11.296936 1.610264 0.000015 -0.000013 3.248875 -0.165654 -11.296945 1.610076 0.000003 0.000008 2.639731 -0.000001 0.000002 -0.000002 0.104088 -0.006766 9.502984 -6.232500 -14.542525 0.040883 -0.000023 -0.000008 4.568720 0.446975 -10.308100 0.544922 -0.000075 -0.000030 3.655015 -0.059583 -10.308074 0.546382 0.000007 -0.000011 2.741253 0.000002 -0.000000 0.000000 0.086752 2.267439 8.921715 1.974471 -14.840150 -0.813837 0.000005 0.000014 4.061128 -0.942406 -10.544265 -0.649534 -0.000014 0.000017 3.654988 0.059011 -10.544362 -0.650160 -0.000038 0.000021 2.741242 -0.000002 -0.000001 0.000001 -0.173531 4.467181 7.977013 10.801487 -14.132885 -3.230103 -0.000029 -0.000020 3.350384 -1.834301 -10.111387 -1.984758 -0.000043 0.000025 2.842775 0.172466 -10.111455 -1.985944 -0.000007 -0.000015 2.639717 0.000001 0.000000 0.000001 -0.000020 -0.000054 0.000044 -0.000001 -0.000000 0.000000 -0.000015 0.000005 -0.000016 -0.000001 -0.000001 0.000001 2.625389 0.000003 11.175235 -9.544558 93.291771 -0.508202 -0.000023 -0.000014 10.813629 43.314563 47.190078 35.340054 -0.000030 0.000019 28.724754 -9.194599 1.367418 41.133721 0.644367 0.328960 25.716124 -25.194037 3.209951 -16.894049 2.867260 -2.944290 3.959557 -31.623889 17.268342 51.506593 -0.000034 -0.000015 3.350399 12.679379 -8.429119 -22.889706 -0.000006 0.000011 3.756542 8.440180 -6.403173 -15.670587 -0.000000 -0.000001 3.100009 0.000000 -0.000000 -0.000000 0.086761 -2.345259 10.030910 -6.125463 14.246387 -3.838844 -0.000025 0.000003 4.061063 0.360580 10.317044 -1.467286 0.000013 -0.000024 3.248843 -0.139482 10.317227 -1.467283 0.000015 0.000001 2.639737 0.000000 0.000003 0.000001 -0.104130 -0.006755 9.502974 -1.116475 13.635022 -3.131498 0.000008 -0.000015 4.568709 0.453475 9.798472 -0.526059 -0.000029 0.000025 3.654981 -0.042071 9.798743 -0.522504 0.000002 -0.000010 2.741267 0.000001 -0.000002 -0.000001 -0.086769 2.267469 8.921722 7.512240 15.765501 -0.399333 -0.000007 0.000006 4.061100 -0.925260 11.131908 0.683887 0.000046 0.000007 3.654975 0.072564 11.131667 0.700828 0.000004 0.000003 2.741242 -0.000000 -0.000002 0.000000 0.173466 4.467164 7.977020 16.590707 16.541656 2.434591 -0.000038 -0.000026 3.350435 -1.757096 11.621738 2.290879 -0.000003 0.000025 2.842777 0.249656 11.621660 2.293135 -0.000013 0.000004 2.639711 0.000001 -0.000003 -0.000001 0.000026 -0.000063 0.000024 0.000002 -0.000000 0.000002 -0.000013 -0.000047 -0.000004 -0.000002 0.000002 0.000000 -11.289890 0.000029 0.000000 -11.084069 24.931012 8.873375 -0.000014 0.000021 -38.200333 -1.861477 0.628685 18.621840 0.000009 -0.000021 -39.900852 -16.754203 -9.809494 21.325039 -0.000005 -15.261650 0.000003 1.945314 3.138515 -15.203303 0.000001 -7.370757 0.000002 0.000004 0.000000 0.000001 0.000014 0.000001 0.000001 -0.000000 -0.000001 0.000001 -0.000004 0.000015 0.000003 -0.000002 0.000002 0.000000 11.315698 -0.000071 -0.000034 -4.686294 8.596907 21.354564 0.000017 -0.000028 -38.200333 0.195717 -0.043075 12.552733 -0.000000 -0.000048 -39.900860 12.102387 -2.188194 11.311349 -0.000008 -15.261647 0.000015 -1.177202 0.568065 -16.982533 0.000000 -7.539978 0.000000 -0.000000 -0.000000 0.000001 0.000034 -0.000059 0.000002 -0.000000 -0.000000 0.000003 -0.000000 -0.000008 0.000001 0.000001 -0.000000 -0.000001 
20.655212 -19.289734 86.558044 -2.506720 -5.470460 -21.467069 -0.000038 2.080025 8.814246 -0.832000 -0.200033 12.062630 -0.000051 -0.000036 8.844137 0.311839 0.798097 2.008999 -0.000024 0.000002 11.682262 2.518826 5.893940 14.394019 -0.000008 0.000024 11.746702 0.099843 3.030511 4.579193 -0.000008 -0.000042 17.658253 8.669068 5.391304 13.760832 0.000015 0.000024 5.101496 7.930592 -1.839997 0.528067 -0.000058 -0.000060 5.101522 -0.762137 1.553878 -19.865383 -0.000018 -0.000054 11.655078 -0.000001 0.000000 -0.000000 -2.625401 -0.000028 11.175217 13.644010 -96.824120 0.619622 -0.000027 -0.000008 10.434742 -55.012973 -36.577282 62.442751 -0.000033 -0.000004 29.628412 14.417385 0.400575 15.627094 -0.000050 0.000077 22.857605 12.132646 -8.261320 -3.781570 -2.867260 -2.944290 3.959526 31.604593 -17.443326 51.240462 -0.000038 -0.000046 3.350468 -13.067052 8.582357 -23.536880 -0.000015 -0.000050 3.756561 -8.692451 6.542771 -16.108579 -0.000008 -0.000014 3.147332 0.000001 0.000001 0.000003 -0.086716 -2.345265 10.030939 -11.708548 -15.671901 2.696421 0.000042 0.000026 4.061123 0.334518 -11.190575 1.595071 -0.000024 -0.000026 3.248893 -0.165231 -11.190567 1.595015 -0.000006 0.000006 2.639700 -0.000001 -0.000000 -0.000002 0.104053 -0.006756 9.502959 -6.202688 -14.389407 0.156008 -0.000015 0.000004 4.568733 0.446946 -10.204505 0.541374 0.000007 0.000022 3.654989 -0.058255 -10.204488 0.542297 -0.000008 -0.000014 2.741280 0.000002 -0.000002 -0.000001 0.086733 2.267454 8.921728 2.000895 -14.692505 -0.686955 -0.000033 0.000007 4.061095 -0.942832 -10.432722 -0.644939 0.000015 -0.000001 3.654995 0.058236 -10.432727 -0.645132 0.000011 0.000008 2.741259 -0.000001 0.000002 -0.000001 -0.173473 4.467198 7.977024 10.824022 -13.995268 -3.096906 -0.000025 -0.000024 3.350405 -1.834560 -9.997123 -1.962482 -0.000035 0.000021 2.842787 0.171120 -9.997005 -1.963477 -0.000012 0.000030 2.639732 0.000004 0.000001 -0.000000 -0.000002 -0.000082 0.000024 -0.000005 -0.000001 0.000000 0.000001 -0.000010 -0.000002 0.000002 -0.000001 -0.000001 2.625412 0.000022 11.175215 -9.565669 93.287038 -0.505664 -0.000008 -0.000068 10.813629 43.429836 47.198632 35.427355 -0.000023 0.000004 28.724758 -9.350463 1.372501 41.089332 0.644314 0.328892 25.716179 -25.496599 3.160010 -16.836374 2.867275 -2.944244 3.959541 -31.623892 17.268337 51.506593 0.000008 -0.000015 3.350388 12.679382 -8.429124 -22.889697 -0.000013 0.000031 3.756519 8.440179 -6.403173 -15.670592 0.000015 -0.000009 3.100012 0.000001 0.000001 -0.000003 0.086773 -2.345279 10.030891 -6.138976 14.158062 -3.821211 -0.000042 -0.000019 4.061081 0.361391 10.253758 -1.458224 0.000010 -0.000002 3.248856 -0.138019 10.253792 -1.458122 -0.000009 -0.000009 2.639704 0.000001 0.000003 0.000001 -0.104128 -0.006766 9.502941 -1.129854 13.556395 -3.136632 -0.000066 -0.000003 4.568750 0.453407 9.743181 -0.525673 -0.000034 0.000013 3.655001 -0.042559 9.743168 -0.521628 -0.000040 -0.000004 2.741243 0.000001 0.000001 0.000001 -0.086761 2.267428 8.921722 7.500900 15.715413 -0.440363 -0.000010 0.000005 4.061101 -0.926498 11.094011 0.685598 -0.000003 0.000011 3.654978 0.071669 11.094121 0.699672 0.000002 0.000004 2.741240 -0.000000 0.000002 0.000000 0.173500 4.467189 7.977003 16.589131 16.539085 2.356042 0.000015 0.000021 3.350403 -1.755681 11.607713 2.293457 0.000005 -0.000005 2.842789 0.247321 11.607616 2.294154 -0.000001 0.000001 2.639718 -0.000001 0.000004 0.000002 0.000022 -0.000108 -0.000001 -0.000002 0.000000 -0.000001 -0.000019 -0.000014 0.000000 0.000002 0.000000 0.000000 -11.289948 0.000029 0.000015 -11.063938 24.930394 8.860243 0.000002 -0.000022 -38.200329 -1.859364 0.629897 18.700771 -0.000011 -0.000028 -39.900833 -16.780349 -9.802840 21.269334 -0.000001 -15.261658 0.000010 1.942085 3.139645 -15.188328 -0.000008 -7.370712 0.000001 -0.000002 0.000000 0.000001 -0.000005 0.000001 0.000001 -0.000000 0.000001 0.000000 -0.000012 0.000005 0.000002 -0.000001 0.000001 0.000001 11.315699 -0.000051 -0.000034 -4.689432 8.600386 21.348890 -0.000039 -0.000036 -38.200333 0.194589 -0.042790 12.587234 0.000024 -0.000100 -39.900879 12.096154 -2.191415 11.263704 -0.000011 -15.261682 0.000016 -1.177133 0.569517 -16.952366 0.000001 -7.539978 -0.000001 0.000000 -0.000000 0.000000 0.000003 0.000002 0.000001 -0.000000 -0.000000 0.000001 -0.000002 0.000057 -0.000004 0.000001 -0.000000 -0.000002 
